Coordinates
version=1
nRows=10
nColumns=63
inDegrees=yes

Units are S.I. units (second, meters, Newtons, ...)
If the header above contains a line with 'inDegrees', this indicates whether rotational values are in degrees (yes) or radians (no).

endheader
time	pelvis_tilt	pelvis_list	pelvis_rotation	pelvis_tx	pelvis_ty	pelvis_tz	hip_flexion_r	hip_adduction_r	hip_rotation_r	knee_angle_r	knee_angle_r_beta	ankle_angle_r	subtalar_angle_r	mtp_angle_r	hip_flexion_l	hip_adduction_l	hip_rotation_l	knee_angle_l	knee_angle_l_beta	ankle_angle_l	subtalar_angle_l	mtp_angle_l	L5_S1_Flex_Ext	L5_S1_Lat_Bending	L5_S1_axial_rotation	L4_L5_Flex_Ext	L4_L5_Lat_Bending	L4_L5_axial_rotation	L3_L4_Flex_Ext	L3_L4_Lat_Bending	L3_L4_axial_rotation	L2_L3_Flex_Ext	L2_L3_Lat_Bending	L2_L3_axial_rotation	L1_L2_Flex_Ext	L1_L2_Lat_Bending	L1_L2_axial_rotation	L1_T12_Flex_Ext	L1_T12_Lat_Bending	L1_T12_axial_rotation	Abs_r3	Abs_r2	Abs_r1	Abs_t1	Abs_t2	neck_flexion	neck_bending	neck_rotation	arm_flex_r	arm_add_r	arm_rot_r	elbow_flex_r	pro_sup_r	wrist_flex_r	wrist_dev_r	arm_flex_l	arm_add_l	arm_rot_l	elbow_flex_l	pro_sup_l	wrist_flex_l	wrist_dev_l
      0.00000000	     -0.64868953	     -4.54850133	    102.17309194	      0.23467434	      0.75368871	      0.67208667	      1.05712394	     -0.75655918	     -8.41732723	      8.83545425	      0.15420777	     21.99155470	      3.58543875	      0.00000000	      1.43541409	      0.20097723	     -4.42628123	      3.53570638	      0.06170972	     24.00568925	     12.37870917	      0.00000000	      0.09472314	      0.19959572	     -1.95858656	      0.17591034	      0.26546231	     -2.08099822	      0.15562064	      0.48529703	     -2.08099822	      0.10825907	      0.48529703	     -1.71376324	      0.08795990	      0.40701559	     -1.59135158	      0.05412480	      0.30917377	     -1.46893992	      0.67659789	      2.25786668	    -10.89307085	      0.00000000	      0.00000000	     12.99284128	      0.26033756	      9.75796665	     22.52091871	    -16.14835737	     78.21628074	     58.82266283	     88.81275677	      7.22354817	     -2.95143238	     22.70249049	    -18.21671092	     84.35810687	     58.01143618	     85.12767773	     -6.33242110	     -5.16518375
      0.01666667	     -0.86357227	     -5.03856798	    101.92240098	      0.23635872	      0.75258959	      0.66999075	      1.35191793	     -0.95114165	     -7.83871422	      8.56971105	      0.14956967	     22.30420812	      3.45753549	      0.00000000	      1.70570028	      0.43608810	     -3.72678366	      3.43080733	      0.05987888	     24.52877290	     11.35875194	      0.00000000	      0.13769643	      0.15292458	     -1.74133221	      0.25571604	      0.20338969	     -1.85016547	      0.22622146	      0.37182082	     -1.85016547	      0.15737325	      0.37182082	     -1.52366568	      0.12786490	      0.31184380	     -1.41483242	      0.07867974	      0.23688017	     -1.30599915	      0.98355181	      1.72991342	     -9.68476733	      0.00000000	      0.00000000	     14.32495615	      0.55949749	      9.40032347	     20.34227815	    -16.73108176	     73.34676140	     59.47503336	     87.77205572	     11.14502744	     -2.62501483	     21.43294969	    -18.85473537	     83.88602680	     58.95861395	     83.69898836	     -5.69915762	     -6.35690509
      0.03333333	     -1.01134760	     -5.28413591	    101.90038657	      0.23744747	      0.75184700	      0.66869182	      1.45180557	     -1.05193591	     -7.39551609	      8.37674046	      0.14620170	     22.44029031	      3.09635188	      0.00000000	      1.78724136	      0.59208384	     -2.63087889	      3.29114015	      0.05744123	     24.72969877	     10.01311993	      0.00000000	      0.15373646	      0.11742035	     -1.61149584	      0.28550398	      0.15616907	     -1.71221433	      0.25257363	      0.28549584	     -1.71221433	      0.17570540	      0.28549584	     -1.41005886	      0.14275968	      0.23944358	     -1.30934037	      0.08784501	      0.18188413	     -1.20862188	      1.09812417	      1.32828251	     -8.96265643	      0.00000000	      0.00000000	     15.19541678	      0.70862155	      8.86104446	     18.82231706	    -17.17194385	     70.23629565	     60.18023317	     85.71743535	     12.83249088	     -2.15590293	     20.81861795	    -19.31481824	     84.00176287	     59.67986228	     81.17422383	     -4.24273242	     -7.33387473
      0.05000000	     -1.09537962	     -5.38003448	    101.92016409	      0.23831768	      0.75133115	      0.66800656	      1.44128113	     -1.07286801	     -7.04687241	      8.20035205	      0.14312314	     22.49163664	      2.75278075	      0.00000000	      1.79346647	      0.64956177	     -1.71510705	      3.21321438	      0.05608117	     24.81007220	      8.95146179	      0.00000000	      0.15607905	      0.09325416	     -1.54399336	      0.28985440	      0.12402803	     -1.64049295	      0.25642227	      0.22673817	     -1.64049295	      0.17838274	      0.22673817	     -1.35099419	      0.14493500	      0.19016389	     -1.25449461	      0.08918357	      0.14445070	     -1.15799502	      1.11485702	      1.05490972	     -8.58722789	      0.00000000	      0.00000000	     15.76094407	      0.78683926	      8.54727284	     18.11962570	    -17.53320940	     69.02986119	     60.77121892	     83.35437587	     12.74743302	     -2.40803828	     20.59623071	    -19.63196208	     84.53549410	     60.16404713	     78.59424096	     -3.26723304	     -8.60208945
      0.06666667	     -1.12700819	     -5.38985976	    102.02806206	      0.23875179	      0.75093521	      0.66787910	      1.41651141	     -1.07597780	     -7.03642220	      8.15601101	      0.14234925	     22.52149237	      2.72017105	      0.00000000	      1.78593694	      0.65437687	     -1.24669606	      3.20246052	      0.05589348	     24.88052565	      8.50651320	      0.00000000	      0.15138361	      0.08004686	     -1.55839198	      0.28113451	      0.10646233	     -1.65579148	      0.24870814	      0.19462595	     -1.65579148	      0.17301633	      0.19462595	     -1.36359298	      0.14057482	      0.16323157	     -1.26619348	      0.08650060	      0.12399259	     -1.16879399	      1.08131802	      0.90550614	     -8.66730868	      0.00000000	      0.00000000	     16.00179214	      0.81486472	      8.34723438	     17.89830691	    -17.79596328	     68.70369712	     61.37790740	     81.58542875	     12.11238513	     -2.45759209	     20.37036141	    -19.96503977	     84.54215849	     60.90153461	     77.17681275	     -2.58358922	     -8.64168221
      0.08333333	     -1.17776689	     -5.44354296	    102.13781850	      0.23906195	      0.75067551	      0.66812522	      1.46346407	     -1.11054038	     -6.89523396	      8.13744458	      0.14202520	     22.43222169	      2.45330239	      0.00000000	      1.86265657	      0.70112099	     -0.85114453	      3.23143236	      0.05639913	     24.80858708	      8.11867302	      0.00000000	      0.16237506	      0.06391016	     -1.58784329	      0.30154672	      0.08500051	     -1.68708350	      0.26676598	      0.15539116	     -1.68708350	      0.18557845	      0.15539116	     -1.38936288	      0.15078148	      0.13032559	     -1.29012267	      0.09278111	      0.09899683	     -1.19088247	      1.15982879	      0.72296449	     -8.83110803	      0.00000000	      0.00000000	     15.85721444	      1.10209300	      8.35516556	     17.86769150	    -17.94487238	     68.90008086	     61.67479088	     80.95168652	     10.80815634	     -3.76027559	     20.24545299	    -19.97822779	     84.36326762	     60.67934921	     75.85515819	      0.54034857	    -10.12229243
      0.10000000	     -1.19684372	     -5.43259096	    102.30040523	      0.23918310	      0.75045865	      0.66848490	      1.43112761	     -1.05273199	     -6.05051426	      8.08811720	      0.14116428	     22.08638853	      1.07354607	      0.00000000	      1.88154067	      0.72097088	     -0.10280083	      3.24309094	      0.05660261	     24.64564124	      7.28856238	      0.00000000	      0.16319147	      0.05503323	     -1.66481644	      0.30306289	      0.07319420	     -1.76886747	      0.26810727	      0.13380780	     -1.76886747	      0.18651154	      0.13380780	     -1.45671439	      0.15153960	      0.11222376	     -1.35266336	      0.09324761	      0.08524647	     -1.24861233	      1.16566038	      0.62254690	     -9.25920961	      0.00000000	      0.00000000	     15.76707035	      1.22503210	      8.44065632	     18.01693942	    -18.04269943	     69.24523158	     62.08519854	     81.07598290	      9.64458838	     -4.35468530	     19.71179192	    -20.08269102	     83.11793697	     60.80629400	     75.15188814	      3.93451228	     -9.51629672
      0.11666667	     -1.24356488	     -5.40281313	    102.49455469	      0.23923686	      0.75037538	      0.66904862	      1.40763958	     -1.08808789	     -6.16524711	      8.14856786	      0.14221934	     22.02384700	      0.93182022	      0.00000000	      1.90777561	      0.75960262	      0.34819221	      3.28979815	      0.05741781	     24.54266192	      6.92081394	      0.00000000	      0.16330263	      0.04123575	     -1.72404507	      0.30326931	      0.05484354	     -1.83179789	      0.26828989	      0.10026060	     -1.83179789	      0.18663857	      0.10026060	     -1.50853944	      0.15164282	      0.08408794	     -1.40078662	      0.09331112	      0.06387417	     -1.29303381	      1.16645433	      0.46646702	     -9.58862149	      0.00000000	      0.00000000	     15.51815078	      1.40757692	      8.38829372	     18.23827316	    -18.12007099	     69.82372518	     62.30362186	     80.76843159	      8.56795818	     -5.37315114	     19.86223890	    -20.05416177	     83.60479355	     60.80960157	     73.33302821	      5.57081781	     -9.57971334
      0.13333333	     -1.28172590	     -5.37621932	    102.71624535	      0.23931606	      0.75033067	      0.66974261	      1.38140331	     -1.11092785	     -6.31834305	      8.20394392	      0.14318583	     22.08774683	      0.81224029	      0.00000000	      1.96832665	      0.77886765	      0.53149756	      3.37190396	      0.05885083	     24.54989257	      7.00712492	      0.00000000	      0.15755323	      0.02966552	     -1.77305661	      0.29259211	      0.03945514	     -1.88387265	      0.25884421	      0.07212874	     -1.88387265	      0.18006759	      0.07212874	     -1.55142453	      0.14630393	      0.06049392	     -1.44060849	      0.09002592	      0.04595189	     -1.32979246	      1.12538698	      0.33558227	     -9.86120894	      0.00000000	      0.00000000	     15.34525547	      1.43820395	      8.18176422	     18.40244302	    -18.18934940	     70.13006719	     62.51243290	     80.68686655	      7.93318921	     -6.26522780	     20.17404326	    -19.91328851	     84.34888187	     60.65160731	     71.59862059	      7.36871948	     -9.53894467
      0.15000000	     -1.31938784	     -5.44405420	    102.89393749	      0.23914866	      0.75021546	      0.67051250	      1.50533656	     -1.19225139	     -6.49401440	      8.37158587	      0.14611174	     22.30258228	      0.85229428	      0.00000000	      2.13419924	      0.85029900	      0.57376030	      3.48263122	      0.06078338	     24.65745894	      7.08756732	      0.00000000	      0.16010711	      0.02038930	     -1.80849169	      0.29733491	      0.02711776	     -1.92152242	      0.26303997	      0.04957454	     -1.92152242	      0.18298641	      0.04957454	     -1.58243022	      0.14867546	      0.04157785	     -1.46939949	      0.09148520	      0.03158302	     -1.35636876	      1.14362905	      0.23064780	    -10.05828821	      0.00000000	      0.00000000	     15.26122002	      1.28448186	      7.61008523	     18.55134183	    -18.30129699	     70.38477711	     62.70008438	     80.50849646	      7.49756460	     -7.01431567	     20.68822037	    -19.64588009	     85.61767803	     60.34227267	     69.62735075	      8.98009460	     -9.69447435
